<svg width="117" height="40" viewBox="0 0 117 40" fill="none" xmlns="http://www.w3.org/2000/svg">
<path d="M15.6258 31.9994C9.92175 31.9994 4.00838 27.204 4 20.6469C3.99791 18.9751 5.17975 16.959 7.41153 16.959C9.64331 16.959 10.7309 18.2685 10.9089 20.6469C11.1936 24.4415 12.6727 27.3537 12.9617 27.9096C12.9857 27.9546 12.9993 27.9818 13.0056 27.9954C13.8923 29.8043 15.6509 30.916 17.8188 30.916C19.2132 30.916 20.4076 30.401 21.446 29.5248C19.6298 31.2708 17.7131 31.9994 15.6237 31.9994H15.6258Z" fill="#022A9A"/>
<path d="M29.0654 13.3604C34.7684 13.3604 40.6817 18.1557 40.6912 24.7129C40.6933 26.3846 39.5114 28.4008 37.2796 28.4008C35.0479 28.4008 33.9602 27.0912 33.7823 24.7129C33.4745 20.6094 31.7756 17.5381 31.6845 17.3644C30.7769 15.6309 28.9639 14.4438 26.8713 14.4438C25.477 14.4438 24.2826 14.9588 23.2441 15.835C25.0603 14.0889 26.977 13.3604 29.0664 13.3604H29.0654Z" fill="#022A9A"/>
<path d="M31.6807 17.3586C30.7711 15.6282 28.9611 14.4453 26.8717 14.4453C25.4774 14.4453 24.283 14.9603 23.2446 15.8365L23.2299 15.8491C19.1955 19.4605 16.8926 26.3014 12.9629 27.9103C12.987 27.9553 13.0006 27.9825 13.0069 27.9961C13.8935 29.805 15.6521 30.9167 17.82 30.9167C19.2144 30.9167 20.4088 30.4017 21.4472 29.5255C25.6334 25.8062 27.4726 19.2889 31.6807 17.3586Z" fill="#FF5874"/>
<path d="M98.9366 14.2294V11.2712C100.805 11.178 102.082 9.83811 102.175 8.00098H105.165C105.102 11.4586 102.393 14.1059 98.9355 14.2305L98.9366 14.2294Z" fill="#022A9A"/>
<path d="M81.952 28.3814V31.638H80.9868C78.8158 31.638 77.4591 30.7336 77.0372 29.0451C75.801 30.8539 73.8414 32.0002 71.4892 32.0002C67.1481 32.0002 63.9219 28.5332 63.9219 23.9503C63.9219 19.3674 67.1481 15.9004 71.4892 15.9004C73.7503 15.9004 75.6502 16.9556 76.8855 18.6441V16.2626H80.2624V26.9661C80.2624 27.8402 80.7754 28.3835 81.6798 28.3835H81.9509L81.952 28.3814ZM76.8865 23.9492C76.8865 21.2359 74.8662 19.1549 72.1529 19.1549C69.4396 19.1549 67.3889 21.2349 67.3889 23.9492C67.3889 26.6636 69.4092 28.7425 72.1529 28.7425C74.8965 28.7425 76.8865 26.6625 76.8865 23.9492Z" fill="#022A9A"/>
<path d="M84.6875 8H88.2749V31.6378H84.6875V8Z" fill="#022A9A"/>
<path d="M108.75 28.3814V31.638H107.785C105.614 31.638 104.257 30.7336 103.835 29.0451C102.599 30.8539 100.639 32.0002 98.288 32.0002C93.9459 32.0002 90.7207 28.5332 90.7207 23.9503C90.7207 19.3674 93.9469 15.9004 98.288 15.9004C100.549 15.9004 102.449 16.9556 103.684 18.6441V16.2626H107.061V26.9661C107.061 27.8402 107.574 28.3835 108.479 28.3835H108.75V28.3814ZM103.684 23.9492C103.684 21.2359 101.664 19.1549 98.9507 19.1549C96.2373 19.1549 94.1867 21.2349 94.1867 23.9492C94.1867 26.6636 96.207 28.7425 98.9507 28.7425C101.694 28.7425 103.684 26.6625 103.684 23.9492Z" fill="#022A9A"/>
<path d="M54.5153 31.9987C50.2391 31.9987 47.6074 29.6811 47.6074 26.0979V16.3135H50.9593V25.0124C50.9593 27.6912 52.3662 28.7777 54.5205 28.7777C56.7941 28.7777 58.3204 27.5718 58.3204 25.0124V16.3135H61.6722V26.1251C61.6722 30.0245 58.8113 31.9987 54.5163 31.9987H54.5153Z" fill="#022A9A"/>
</svg>
